# Blender v2.79 (sub 0) OBJ File: ''
# www.blender.org
o Cube.002_Cube.003
v 13.975881 1.000001 -5.949500
v 13.975881 -0.999999 -7.949500
v 13.975881 -0.999999 -5.949500
v 13.975881 1.000001 -7.949500
v 42.137947 -0.999999 -7.949500
v 42.137947 1.000001 -7.949500
v 42.137947 -0.999999 -5.949500
v 42.137947 1.000001 -5.949500
v 13.975880 1.000000 0.050396
v 13.975880 -1.000000 -1.949604
v 13.975880 -1.000000 0.050396
v 13.975880 1.000000 -1.949604
v 42.137947 -1.000000 -1.949604
v 42.137947 1.000000 -1.949604
v 42.137947 -1.000000 0.050396
v 42.137947 1.000000 0.050396
v 13.975880 0.999999 5.209727
v 13.975880 -1.000000 3.209727
v 13.975880 -1.000001 5.209727
v 13.975880 0.999999 3.209727
v 42.137947 -1.000000 3.209727
v 42.137947 0.999999 3.209727
v 42.137947 -1.000001 5.209727
v 42.137947 0.999999 5.209727
vn -1.0000 0.0000 0.0000
vn 0.0000 0.0000 -1.0000
vn 1.0000 0.0000 0.0000
vn 0.0000 0.0000 1.0000
vn 0.0000 -1.0000 -0.0000
vn 0.0000 1.0000 0.0000
s 1
f 1//1 2//1 3//1
f 4//2 5//2 2//2
f 6//3 7//3 5//3
f 8//4 3//4 7//4
f 5//5 3//5 2//5
f 4//6 8//6 6//6
f 9//1 10//1 11//1
f 12//2 13//2 10//2
f 14//3 15//3 13//3
f 16//4 11//4 15//4
f 13//5 11//5 10//5
f 12//6 16//6 14//6
f 17//1 18//1 19//1
f 20//2 21//2 18//2
f 22//3 23//3 21//3
f 24//4 19//4 23//4
f 21//5 19//5 18//5
f 20//6 24//6 22//6
f 1//1 4//1 2//1
f 4//2 6//2 5//2
f 6//3 8//3 7//3
f 8//4 1//4 3//4
f 5//5 7//5 3//5
f 4//6 1//6 8//6
f 9//1 12//1 10//1
f 12//2 14//2 13//2
f 14//3 16//3 15//3
f 16//4 9//4 11//4
f 13//5 15//5 11//5
f 12//6 9//6 16//6
f 17//1 20//1 18//1
f 20//2 22//2 21//2
f 22//3 24//3 23//3
f 24//4 17//4 19//4
f 21//5 23//5 19//5
f 20//6 17//6 24//6
